<mxfile host="app.diagrams.net" modified="2023-04-20T01:08:09.422Z" agent="Mozilla/5.0 (Windows NT 10.0; Win64; x64; rv:109.0) Gecko/20100101 Firefox/112.0" version="21.1.7" etag="Q82VQXgUv_Rg6AByWB6C" type="github">
  <diagram name="Page-1" id="Fy9OEkuUfLd0YkUhEHNZ">
    <mxGraphModel>
      <root>
        <mxCell id="0" />
        <mxCell id="1" parent="0" />
      </root>
    </mxGraphModel>
  </diagram>
</mxfile>
